<?xml version="1.0" encoding="UTF-8" standalone="no"?>
<svg
   xmlns:dc="http://purl.org/dc/elements/1.1/"
   xmlns:cc="http://creativecommons.org/ns#"
   xmlns:rdf="http://www.w3.org/1999/02/22-rdf-syntax-ns#"
   xmlns:svg="http://www.w3.org/2000/svg"
   xmlns="http://www.w3.org/2000/svg"
   xmlns:xlink="http://www.w3.org/1999/xlink"
   xml:space="preserve"
   enable-background="new 0 0 400 400"
   viewBox="0 0 48 48"
   height="48"
   width="48"
   y="0px"
   x="0px"
   id="Layer_1"
   version="1.1"><metadata
   id="metadata3811"><rdf:RDF><cc:Work
       rdf:about=""><dc:format>image/svg+xml</dc:format><dc:type
         rdf:resource="http://purl.org/dc/dcmitype/StillImage" /><dc:title></dc:title></cc:Work></rdf:RDF></metadata><defs
   id="defs3809"><linearGradient
     id="linearGradient2795"><stop
       style="stop-color:#b8b8b8;stop-opacity:0.49803922;"
       offset="0"
       id="stop2797" /><stop
       style="stop-color:#7f7f7f;stop-opacity:0;"
       offset="1"
       id="stop2799" /></linearGradient><linearGradient
     id="linearGradient2787"><stop
       style="stop-color:#7f7f7f;stop-opacity:0.5;"
       offset="0"
       id="stop2789" /><stop
       style="stop-color:#7f7f7f;stop-opacity:0;"
       offset="1"
       id="stop2791" /></linearGradient><linearGradient
     id="linearGradient3676"><stop
       style="stop-color:#b2b2b2;stop-opacity:0.5;"
       offset="0"
       id="stop3678" /><stop
       style="stop-color:#b3b3b3;stop-opacity:0;"
       offset="1"
       id="stop3680" /></linearGradient><linearGradient
     id="linearGradient3236"><stop
       style="stop-color:#f4f4f4;stop-opacity:1"
       offset="0"
       id="stop3244" /><stop
       style="stop-color:white;stop-opacity:1"
       offset="1"
       id="stop3240" /></linearGradient><linearGradient
     id="linearGradient4671"><stop
       style="stop-color:#ffd43b;stop-opacity:1;"
       offset="0"
       id="stop4673" /><stop
       style="stop-color:#ffe873;stop-opacity:1"
       offset="1"
       id="stop4675" /></linearGradient><linearGradient
     id="linearGradient4689"><stop
       style="stop-color:#5a9fd4;stop-opacity:1;"
       offset="0"
       id="stop4691" /><stop
       style="stop-color:#306998;stop-opacity:1;"
       offset="1"
       id="stop4693" /></linearGradient><linearGradient
     x1="224.23996"
     y1="144.75717"
     x2="-65.308502"
     y2="144.75717"
     id="linearGradient2987"
     xlink:href="#linearGradient4671"
     gradientUnits="userSpaceOnUse"
     gradientTransform="translate(100.2702,99.61116)" /><linearGradient
     x1="172.94208"
     y1="77.475983"
     x2="26.670298"
     y2="76.313133"
     id="linearGradient2990"
     xlink:href="#linearGradient4689"
     gradientUnits="userSpaceOnUse"
     gradientTransform="translate(100.2702,99.61116)" /><linearGradient
     xlink:href="#linearGradient4671"
     id="linearGradient2255"
     gradientUnits="userSpaceOnUse"
     gradientTransform="matrix(0.562541,0,0,0.567972,-11.5974,-7.60954)"
     x1="224.23996"
     y1="144.75717"
     x2="-65.308502"
     y2="144.75717" /><linearGradient
     xlink:href="#linearGradient4689"
     id="linearGradient2258"
     gradientUnits="userSpaceOnUse"
     gradientTransform="matrix(0.562541,0,0,0.567972,-11.5974,-7.60954)"
     x1="172.94208"
     y1="76.176224"
     x2="26.670298"
     y2="76.313133" /><radialGradient
     xlink:href="#linearGradient2795"
     id="radialGradient2801"
     cx="61.518883"
     cy="132.28575"
     fx="61.518883"
     fy="132.28575"
     r="29.036913"
     gradientTransform="matrix(1,0,0,0.177966,0,108.7434)"
     gradientUnits="userSpaceOnUse" /><linearGradient
     xlink:href="#linearGradient4671"
     id="linearGradient1475"
     gradientUnits="userSpaceOnUse"
     gradientTransform="matrix(0.562541,0,0,0.567972,-9.399749,-5.305317)"
     x1="150.96111"
     y1="192.35176"
     x2="112.03144"
     y2="137.27299" /><linearGradient
     xlink:href="#linearGradient4689"
     id="linearGradient1478"
     gradientUnits="userSpaceOnUse"
     gradientTransform="matrix(0.562541,0,0,0.567972,-9.399749,-5.305317)"
     x1="26.648937"
     y1="20.603781"
     x2="135.66525"
     y2="114.39767" /><radialGradient
     xlink:href="#linearGradient2795"
     id="radialGradient1480"
     gradientUnits="userSpaceOnUse"
     gradientTransform="matrix(2.382716e-8,-0.296405,1.43676,4.683673e-7,-128.544,150.5202)"
     cx="61.518883"
     cy="132.28575"
     fx="61.518883"
     fy="132.28575"
     r="29.036913" /></defs>







<g
   transform="translate(0,-351.8945)"
   id="g3917"><rect
     y="351.8945"
     x="0"
     height="48"
     width="48.089252"
     id="rect3937"
     style="opacity:1;fill:#ffffff;fill-opacity:1;stroke:none;stroke-width:1.50948834;stroke-linejoin:round;stroke-miterlimit:4;stroke-dasharray:none;stroke-opacity:1" /><g
     transform="matrix(0.11804273,0,0,0.11804273,0.39145418,354.06799)"
     id="g3935"><g
       transform="translate(0.4312755,-3.6380483)"
       id="g4760"><path
         stroke-miterlimit="10"
         d="m 339.20364,368.37552 c 0,6.21171 -6.50853,11.24791 -14.53857,11.24791 H 74.472369 c -8.028864,0 -14.538563,-5.0362 -14.538563,-11.24791 V 23.873678 c 0,-6.211705 6.509699,-11.247918 14.538563,-11.247918 H 324.66507 c 8.03004,0 14.53857,5.036213 14.53857,11.247918 z"
         id="path3784"
         style="fill:#771214;stroke:#000000;stroke-width:2.30544114;stroke-miterlimit:10" /><rect
         x="83.518242"
         y="26.624632"
         stroke-miterlimit="10"
         width="232.96352"
         height="332.52856"
         id="rect3786"
         style="fill:#ffffff;stroke:#000000;stroke-width:2.21400881;stroke-miterlimit:10" /><path
         stroke-miterlimit="10"
         d="M 200,2.328102"
         id="path3788"
         style="fill:#bfbfbf;stroke:#000000;stroke-width:1.1070044;stroke-miterlimit:10" /><path
         stroke-miterlimit="10"
         d="M 200,2.333637"
         id="path3790"
         style="fill:none;stroke:#000000;stroke-width:1.1070044;stroke-miterlimit:10" /><path
         stroke-miterlimit="10"
         d="M 200,3.4395343"
         id="path3792"
         style="fill:none;stroke:#000000;stroke-width:1.1070044;stroke-miterlimit:10" /><path
         stroke-miterlimit="10"
         d="M 200,-3.2069195"
         id="path3794"
         style="fill:#a8a5a5;stroke:#a8a5a5;stroke-width:1.1070044;stroke-miterlimit:10" /><g
         id="g3804"
         transform="matrix(1.1070043,0,0,1.1070043,-13.977289,-39.966104)">
	<path
   d="m 232.667,42.367 v 8.366 -0.288 4.039 h 0.124 18.875 c 4.453,0 8.064,3.983 8.064,8.898 V 68.28 H 126.858 v -4.898 c 0,-4.915 3.61,-8.898 8.064,-8.898 h 18.87 0.13 v -3.944 0.288 -8.465 c 0,0 30.099,0 30.117,0 2.829,0 5.553,0.188 8.45,0.064 2.492,-0.106 4.517,-0.126 6.722,-0.06 1.235,0.038 2.252,0.021 3.486,-0.002 1.916,-0.036 3.835,0 5.751,0 5.171,0 10.341,0 15.513,10e-4 2.902,0 5.803,10e-4 8.706,10e-4 z"
   id="path3796"
   style="fill:#828282" />
	<path
   d="m 185.541,41.672 c 1.29,0 3.727,0.553 3.965,-1.125 0.14,-0.981 -0.435,-1.236 -0.682,-1.959 -0.266,-0.777 -0.176,-2.024 -0.274,-2.852 -0.216,-1.818 0.869,-3.695 2.528,-4.5 1.394,-0.677 3.443,-1.688 4.783,-0.442 1.135,1.053 1.788,2.97 2.239,4.521 0.681,2.335 -0.75,5.395 -2.634,6.552 -0.34,0.208 -0.69,0.5 -1.074,0.59 -0.292,0.069 -0.647,0.005 -0.944,0.007 -0.439,0.002 -0.896,0.001 -1.323,-0.125 -0.459,-0.135 -0.465,-0.319 -0.725,-0.67 -0.479,-0.65 -1.433,-0.601 -2.108,-0.746 -1.02,-0.219 -2.191,0.09 -3.102,0.607 -0.391,0.222 -0.977,0.594 -1.147,1.077 -0.209,0.594 0.371,0.52 0.774,0.525 3.108,0.04 6.216,0.086 9.324,0.144 1.25,0.023 2.5,0.043 3.749,0.054 0.474,0.004 1.369,0.205 1.801,-10e-4 0.363,-0.173 0.482,-0.871 0.564,-1.255 0.324,-1.498 0.656,-2.986 0.999,-4.479 0.021,-0.092 0.04,-0.186 0.06,-0.279 0.138,-0.695 -0.039,-1.591 -0.149,-2.283 -0.238,-1.489 -0.74,-2.928 -1.558,-4.15 -0.339,-0.509 -0.558,-1.032 -1.02,-1.466 -0.514,-0.483 -1.167,-0.735 -1.699,-1.202 -0.502,-0.439 -0.841,-0.852 -1.465,-1.13 -0.454,-0.203 -0.996,-0.375 -1.467,-0.372 -0.545,0.003 -1.115,-0.064 -1.63,0.106 -0.505,0.168 -1.033,0.333 -1.554,0.435 -1.2,0.234 -2.417,0.201 -3.417,1.042 -0.597,0.501 -1.093,1.028 -1.566,1.668 -0.477,0.645 -0.755,1.441 -1.118,2.196 -0.456,0.946 -0.91,1.904 -1.232,2.917 -0.252,0.792 -0.214,1.64 -0.144,2.468 0.052,0.609 0.333,1.2 0.454,1.797 0.228,1.116 0.607,2.229 0.982,3.289"
   id="path3798"
   style="fill:#828282" />
	<path
   stroke-miterlimit="10"
   d="m 185.528,41.975 c -0.588,-1.418 -1.132,-3.155 -1.132,-4.94 0,-5.659 3.984,-10.246 8.899,-10.246 4.915,0 8.995,4.148 8.9,10.246 -0.025,1.581 -0.68,3.776 -1.504,5.33 v 0 l 31.976,0.002 v 8.366 -0.289 4.039 h 0.124 18.875 c 4.453,0 8.064,3.984 8.064,8.898 v 4.898 H 126.858 v -4.898 c 0,-4.915 3.61,-8.898 8.064,-8.898 h 18.87 0.13 v -3.945 0.289 -8.465 h 30.117 l 1.656,0.004 c -0.056,-0.127 -0.112,-0.258 -0.167,-0.391"
   id="path3800"
   style="fill:none;stroke:#000000;stroke-miterlimit:10" />
	<ellipse
   stroke-miterlimit="10"
   cx="193.405"
   cy="36.257999"
   rx="5.1739998"
   ry="6.1079998"
   id="ellipse3802"
   style="fill:none;stroke:#000000;stroke-miterlimit:10" />
</g><g
         id="g3899"
         transform="matrix(1.9739667,0,0,1.9739667,-207.26093,-226.32624)"><g
           transform="translate(145.14396,158.34508)"
           id="g3893"><path
             style="fill:url(#linearGradient1478);fill-opacity:1"
             d="m 60.510156,6.3979729 c -4.583653,0.021298 -8.960939,0.4122177 -12.8125,1.09375 C 36.35144,9.4962267 34.291407,13.691825 34.291406,21.429223 v 10.21875 h 26.8125 v 3.40625 h -26.8125 -10.0625 c -7.792459,0 -14.6157592,4.683717 -16.7500002,13.59375 -2.46182,10.212966 -2.5710151,16.586023 0,27.25 1.9059283,7.937852 6.4575432,13.593748 14.2500002,13.59375 h 9.21875 v -12.25 c 0,-8.849902 7.657144,-16.656248 16.75,-16.65625 h 26.78125 c 7.454951,0 13.406253,-6.138164 13.40625,-13.625 v -25.53125 c 0,-7.266339 -6.12998,-12.7247775 -13.40625,-13.9375001 -4.605987,-0.7667253 -9.385097,-1.1150483 -13.96875,-1.09375 z m -14.5,8.2187501 c 2.769547,0 5.03125,2.298646 5.03125,5.125 -2e-6,2.816336 -2.261703,5.09375 -5.03125,5.09375 -2.779476,-1e-6 -5.03125,-2.277415 -5.03125,-5.09375 -1e-6,-2.826353 2.251774,-5.125 5.03125,-5.125 z"
             id="path1948" /><path
             style="fill:url(#linearGradient1475);fill-opacity:1"
             d="m 91.228906,35.054223 v 11.90625 c 0,9.230755 -7.825895,16.999999 -16.75,17 h -26.78125 c -7.335833,0 -13.406249,6.278483 -13.40625,13.625 v 25.531247 c 0,7.26634 6.318588,11.54032 13.40625,13.625 8.487331,2.49561 16.626237,2.94663 26.78125,0 6.750155,-1.95439 13.406253,-5.88761 13.40625,-13.625 V 92.897973 h -26.78125 v -3.40625 h 26.78125 13.406254 c 7.79246,0 10.69625,-5.435408 13.40624,-13.59375 2.79933,-8.398886 2.68022,-16.475776 0,-27.25 -1.92578,-7.757441 -5.60387,-13.59375 -13.40624,-13.59375 z m -15.0625,64.65625 c 2.779478,3e-6 5.03125,2.277417 5.03125,5.093747 -2e-6,2.82635 -2.251775,5.125 -5.03125,5.125 -2.76955,0 -5.03125,-2.29865 -5.03125,-5.125 2e-6,-2.81633 2.261697,-5.093747 5.03125,-5.093747 z"
             id="path1950" /><ellipse
             ry="8.6066771"
             rx="48.948284"
             cy="132.28575"
             cx="61.518883"
             style="opacity:0.44382025;fill:url(#radialGradient1480);fill-opacity:1;fill-rule:nonzero;stroke:none;stroke-width:20;stroke-miterlimit:4;stroke-dasharray:none;stroke-opacity:1"
             id="path1894"
             transform="matrix(0.73406,0,0,0.809524,16.24958,27.00935)" /></g></g></g></g></g></svg>